<svg xmlns="http://www.w3.org/2000/svg" viewBox="0 0 120 120">
<defs>
<linearGradient id="bg" x1="0" y1="0" x2="0" y2="1">
<stop offset="0" stop-color="#222C3E"/><stop offset="1" stop-color="#141B29"/>
</linearGradient>
<linearGradient id="or" x1="0" y1="0" x2="0" y2="1">
<stop offset="0" stop-color="#F0CE7A"/><stop offset="1" stop-color="#C0861E"/>
</linearGradient>
</defs>
<rect x="0" y="0" width="120" height="120" rx="26" fill="url(#bg)"/>
<g transform="translate(-13.555,-9.515)">
<path transform="matrix(1,0,0,-1,105.048,39.8827)" d="M0 0H-14.843-18.39-21.927-25.487-30.224-70.716L-74.338-12.077H-49.812L-63.958-59.256H-50.253L-37.921-18.123C-36.845-14.535-33.542-12.077-29.796-12.077H-29.102-25.551-22.003-18.452-4.093C-.63-12.134-.985-19.39-5.576-19.337L-5.579-19.345H-6.003-27.964C-30.013-19.345-31.82-20.689-32.408-22.652L-43.383-59.252C-43.018-59.26-42.659-59.265-42.305-59.267-39.871-59.278-37.698-59.14-35.994-58.998-28.609-58.383-27.605-53.078-27.578-53.025L-20.986-31.423C-20.986-31.423-13.091-31.433-10.015-31.425-9.883-31.425-9.757-31.425-9.644-31.424-9.449-31.424-9.282-31.423-9.151-31.422L-9.148-31.414C-5.016-31.476-3.249-31.223-2.109-31.072 2.242-30.498 10.766-25.789 11.352-10.582 11.389-9.611 11.546 .017 0 0" fill="url(#or)" fill-rule="evenodd"/>
</g>
</svg>
